HIERARCHY
ROOT root     
{
	OFFSET 0.0000 0.0000 0.0000
	CHANNELS 6 Xposition Yposition Zposition Zrotation Yrotation Xrotation
	JOINT pelvis   
	{
		OFFSET 0.0000 0.0000 0.0000
		CHANNELS 3 Zrotation Yrotation Xrotation
		JOINT thorax   
		{
			OFFSET 0.0000 23.0750 -5.0000
			CHANNELS 3 Zrotation Yrotation Xrotation
			JOINT rclavicle
			{
				OFFSET 0.0000 28.0009 0.0000
				CHANNELS 3 Zrotation Yrotation Xrotation
				JOINT rhumerus 
				{
					OFFSET -18.5725 5.5939 0.0000
					CHANNELS 3 Zrotation Yrotation Xrotation
					JOINT rradius  
					{
						OFFSET -24.8459 0.0000 0.0000
						CHANNELS 3 Zrotation Yrotation Xrotation
						JOINT rhand    
						{
							OFFSET -24.5477 0.0000 0.0000
							CHANNELS 3 Zrotation Yrotation Xrotation
							End Site
							{
								OFFSET -8.1826 0.0000 0.0000
							}
						}
					}
				}
			}
			JOINT lclavicle
			{
				OFFSET 0.0000 28.0009 0.0000
				CHANNELS 3 Zrotation Yrotation Xrotation
				JOINT lhumerus 
				{
					OFFSET 18.5725 5.5939 0.0000
					CHANNELS 3 Zrotation Yrotation Xrotation
					JOINT lradius  
					{
						OFFSET 24.8459 0.0000 0.0000
						CHANNELS 3 Zrotation Yrotation Xrotation
						JOINT lhand    
						{
							OFFSET 24.5477 0.0000 0.0000
							CHANNELS 3 Zrotation Yrotation Xrotation
							End Site
							{
								OFFSET 8.1826 0.0000 0.0000
							}
						}
					}
				}
			}
			JOINT head     
			{
				OFFSET 0.0000 35.2030 0.0000
				CHANNELS 3 Zrotation Yrotation Xrotation
				End Site
				{
					OFFSET 0.0000 11.7343 0.0000
				}
			}
		}
		JOINT rfemur   
		{
			OFFSET -8.2817 0.0000 0.0000
			CHANNELS 3 Zrotation Yrotation Xrotation
			JOINT rtibia   
			{
				OFFSET 0.0000 -43.3627 0.0000
				CHANNELS 3 Zrotation Yrotation Xrotation
				JOINT rfoot    
				{
					OFFSET 0.0000 -38.2947 0.0000
					CHANNELS 3 Zrotation Yrotation Xrotation
					JOINT rtoes    
					{
						OFFSET 0.0000 0.0000 16.6054
						CHANNELS 3 Zrotation Yrotation Xrotation
						End Site
						{
							OFFSET 0.0000 0.0000 5.5351
						}
					}
				}
			}
		}
		JOINT lfemur   
		{
			OFFSET 8.2817 0.0000 0.0000
			CHANNELS 3 Zrotation Yrotation Xrotation
			JOINT ltibia   
			{
				OFFSET 0.0000 -43.3627 0.0000
				CHANNELS 3 Zrotation Yrotation Xrotation
				JOINT lfoot    
				{
					OFFSET 0.0000 -38.2947 0.0000
					CHANNELS 3 Zrotation Yrotation Xrotation
					JOINT ltoes    
					{
						OFFSET 0.0000 0.0000 16.6054
						CHANNELS 3 Zrotation Yrotation Xrotation
						End Site
						{
							OFFSET 0.0000 0.0000 5.5351
						}
					}
				}
			}
		}
	}
}
MOTION
Frames: 19
Frame Time: .0333333
96.994 75.28 10.621 -12.0978 -87.6724 40.4839 0 -0 0 -3.40136 -9.52442 23.5652 14.2243 -10.1192 -2.3505e-05 65.3416 -21.4432 5.67847 -7.65335e-07 61.3292 -4.53781e-07 -10.9236 3.55358 -0.33989 -6.35585 13.3409 2.07913e-05 -37.2864 -22.9988 -3.55854 -180 -81.2784 180 -5.03936 3.84235 -0.169105 6.78074 2.54255 -10.7432 15.8377 -10.5232 -76.786 -0 -0 43.0774 -2.46973e-05 -12.3713 -7.64576 1.67167 9.2315e-06 -30.4917 -2.92943 14.3529 -38.6611 -0 -0 65.0646 1.97457e-05 7.99473 -20.2583 -2.78405 2.01681e-07 -58.9208 
95.412 75.184 10.562 -3.15393 -87.4028 31.193 0 -0 0 -2.95921 -10.032 23.5571 14.0922 -10.8432 9.70154e-05 64.7253 -22.9408 5.95479 -7.85774e-07 62.2937 -4.7488e-07 -10.266 3.4366 -0.308794 -6.18294 13.668 3.24287e-05 -36.3134 -22.9174 -4.06892 180 -79.9265 180 -5.07336 3.75672 -0.166505 7.02159 2.40802 -10.5999 16.0062 -11.0332 -76.533 -0 -0 40.5228 -1.4044e-05 -12.1965 -7.1021 1.53076 -2.9489e-06 -33.0308 -2.53033 14.2223 -36.8841 -0 -0 64.5552 -1.89184e-06 7.45681 -19.7444 -2.53173 -1.92239e-05 -61.0405 
93.798 75.057 10.511 4.7866 -87.0936 22.8919 0 -0 0 -2.56496 -10.5491 23.4992 13.9215 -11.5824 -4.76697e-05 64.1174 -24.3784 6.31361 -0 63.2584 -0 -9.49683 3.36534 -0.279605 -6.02938 14.0091 -1.04731e-05 -35.3636 -22.7765 -4.55391 -180 -78.6779 180 -5.12038 3.68029 -0.164598 7.23393 2.26678 -10.4332 16.1502 -11.5959 -76.2733 -0 -0 38.4521 -1.09548e-05 -12.0495 -6.49335 1.38286 -1.46391e-05 -35.4348 -2.14938 13.9871 -35.0556 -0 -0 64.0233 7.50526e-06 6.98332 -19.1698 -2.30321 3.79882e-05 -63.2101 
92.16 74.9 10.471 11.8314 -86.749 15.4879 0 -0 0 -2.21224 -11.0746 23.3766 13.7147 -12.3029 -2.5296e-05 63.5382 -25.7854 6.69417 -0 64.2343 -0 -8.64666 3.32938 -0.251793 -5.88668 14.3667 8.6301e-06 -34.4562 -22.583 -5.00021 -180 -77.5226 180 -5.19441 3.611 -0.163896 7.41522 2.11633 -10.26 16.2614 -12.2057 -76.0647 -0 -0 36.9646 -6.37057e-06 -11.9164 -5.79055 1.2197 -1.81307e-06 -37.7615 -1.79832 13.6331 -33.2088 -0 -0 63.4761 -1.88805e-05 6.574 -18.5235 -2.09675 -4.98427e-06 -65.4187 
90.505 74.714 10.442 18.0596 -86.3735 8.91523 0 -0 0 -1.8922 -11.6056 23.1807 13.4579 -13.0008 -1.49534e-05 63.0007 -27.1543 7.09531 -0 65.2003 -0 -7.78162 3.3305 -0.226596 -5.75371 14.7395 3.80354e-08 -33.5983 -22.3353 -5.4053 180 -76.463 180 -5.3055 3.55231 -0.1646 7.5598 1.95434 -10.101 16.329 -12.8536 -75.9574 -0 -0 36.1327 1.11962e-06 -11.774 -4.97607 1.03581 7.04165e-06 -40.0509 -1.48598 13.1519 -31.3646 -0 -0 62.9214 7.29537e-06 6.22148 -17.8054 -1.90929 6.12205e-06 -67.6247 
88.838 74.499 10.424 23.5314 -85.954 3.13277 0 -0 0 -1.58531 -12.1401 22.9062 13.1728 -13.6427 -6.63393e-05 62.5111 -28.5258 7.44749 -5.77427e-07 66.1917 -8.85916e-07 -6.91436 3.3478 -0.202297 -5.62696 15.1402 3.55138e-06 -32.8034 -22.0585 -5.75487 -180 -75.5072 180 -5.46528 3.49493 -0.166901 7.66303 1.7763 -9.98024 16.3511 -13.5385 -75.9971 -0 -0 36.0091 1.4246e-05 -11.595 -4.04042 0.828292 5.78172e-06 -42.3374 -1.21336 12.5363 -29.5507 -0 -0 62.3746 1.4099e-05 5.90672 -17.0171 -1.7343 2.32263e-05 -69.7993 
87.164 74.256 10.415 28.2793 -85.5295 -1.9057 0 -0 0 -1.28162 -12.6727 22.5627 12.8407 -14.2353 -5.96961e-05 62.0764 -29.8693 7.77992 -6.0832e-07 67.1616 -9.16268e-07 -6.11216 3.3956 -0.181299 -5.51239 15.5504 1.18244e-05 -32.0667 -21.7308 -6.06322 -180 -74.6315 180 -5.67389 3.44812 -0.170905 7.72019 1.5829 -9.91771 16.3012 -14.2408 -76.1849 -0 -0 36.5867 2.1246e-06 -11.3562 -2.98585 0.599406 -1.87357e-06 -44.5444 -0.981864 11.7952 -27.7725 -0 -0 61.8365 2.02751e-05 5.61441 -16.1752 -1.56866 1.47821e-05 -71.8775 
85.483 73.986 10.415 32.2925 -85.0898 -6.18708 0 -0 0 -0.957597 -13.204 22.1579 12.49 -14.7534 -5.72296e-05 61.6881 -31.2131 8.04508 -9.49955e-07 68.1456 -6.4252e-07 -5.37261 3.45637 -0.162198 -5.4107 15.9818 3.25195e-05 -31.3975 -21.3753 -6.3199 -180 -73.8546 180 -5.93261 3.40274 -0.176403 7.72791 1.37129 -9.9309 16.1872 -14.9673 -76.5259 -0 -0 37.8449 -3.79491e-06 -11.0183 -1.83723 0.357699 -1.33132e-06 -46.5363 -0.778841 10.9324 -26.0355 -0 -0 61.3129 1.935e-05 5.32055 -15.2944 -1.4073 -4.85524e-07 -73.8294 
83.795 73.693 10.418 35.5873 -84.6477 -9.73077 0 -0 0 -0.594817 -13.7252 21.711 12.1256 -15.198 1.3999e-05 61.3462 -32.5367 8.24161 -9.86634e-07 69.1249 -6.79693e-07 -4.70541 3.53754 -0.145402 -5.32914 16.4191 -2.32922e-05 -30.788 -20.9766 -6.53521 -180 -73.1491 180 -6.23657 3.36163 -0.183201 7.68389 1.14229 -10.0309 15.9882 -15.6927 -76.9763 -0 -0 39.6951 5.18859e-08 -10.5699 -0.633507 0.118199 -2.92598e-07 -48.0891 -0.590309 9.97153 -24.3326 -0 -0 60.8028 1.64881e-05 5.00755 -14.3914 -1.24761 2.72659e-06 -75.6295 
82.099 73.378 10.421 38.1475 -84.2227 -12.535 0 -0 0 -0.168643 -14.23 21.2348 11.7645 -15.5662 0.000149669 61.0337 -33.8272 8.35779 -7.20256e-07 70.0995 -1.02672e-06 -4.09533 3.6352 -0.130001 -5.27345 16.8558 1.99638e-05 -30.243 -20.5353 -6.70869 -180 -72.5149 180 -6.5762 3.32148 -0.190894 7.58719 0.897001 -10.2213 15.7148 -16.4042 -77.4938 -0 -0 42.0321 -3.22795e-07 -9.99326 0.551194 -0.097098 -2.14974e-07 -48.9209 -0.393259 8.93445 -22.6552 -0 -0 60.3031 3.92858e-06 4.66022 -13.478 -1.0884 3.34149e-06 -77.2836 
80.394 73.046 10.417 39.9864 -83.8246 -14.6116 0 -0 0 0.344731 -14.7116 20.7456 11.4281 -15.8568 -4.17936e-05 60.7366 -35.0638 8.38609 -0 71.06 -0 -3.51779 3.74752 -0.115105 -5.25169 17.2861 3.10023e-05 -29.7606 -20.0456 -6.84383 -180 -71.9423 180 -6.93903 3.28149 -0.199 7.43899 0.639002 -10.4992 15.3853 -17.0853 -78.0212 -0 -0 44.7267 3.80002e-06 -9.29134 1.61799 -0.264696 3.74256e-07 -48.7392 -0.16375 7.8482 -20.9975 -0 -0 59.8103 -7.51025e-06 4.27107 -12.5576 -0.930202 7.80048e-06 -78.8195 
78.68 72.702 10.4 41.1105 -83.4952 -15.9806 0 -0 0 0.965668 -15.1609 20.2525 11.1311 -16.0724 -2.48955e-05 60.4406 -36.2142 8.32609 -0 71.9936 -0 -2.94716 3.8722 -0.0995983 -5.27137 17.7018 6.21574e-06 -29.3445 -19.4989 -6.93871 -180 -71.4188 180 -7.30873 3.24159 -0.2071 7.2422 0.3734 -10.8533 15.0307 -17.7164 -78.5125 -0 -0 47.6482 2.18571e-06 -8.48313 2.44967 -0.365191 2.03285e-07 -47.3061 0.118955 6.73794 -19.3545 -0 -0 59.3171 1.51707e-05 3.84011 -11.6209 -0.774703 -6.65914e-06 -80.286 
76.961 72.352 10.366 41.5866 -83.2435 -16.6983 0 -0 0 1.70935 -15.5702 19.7558 10.8884 -16.219 -8.11762e-05 60.1312 -37.2414 8.17932 -0 72.8791 -0 -2.35818 4.00426 -0.0824004 -5.33813 18.0936 -7.00192e-06 -28.9986 -18.8842 -6.99236 -180 -70.9374 180 -7.6686 3.20236 -0.214702 7.00262 0.106398 -11.2672 14.6871 -18.2788 -78.9253 -0 -0 50.6728 3.97326e-06 -7.61194 2.93229 -0.391703 2.37434e-07 -44.5105 0.468525 5.62679 -17.7326 -0 -0 58.817 -1.07514e-06 3.37418 -10.6506 -0.62429 -1.98725e-06 -81.7322 
75.239 72.005 10.311 41.4619 -83.0972 -16.8102 0 -0 0 2.5787 -15.9271 19.2587 10.7071 -16.3039 -2.4141e-06 59.7936 -38.1065 7.96046 -1.21646e-06 73.6891 -9.11517e-07 -1.74047 4.14003 -0.0629032 -5.45446 18.4534 1.42117e-05 -28.7272 -18.1877 -7.00033 -180 -70.4788 180 -8.00017 3.16528 -0.221393 6.72888 -0.153678 -11.7206 14.3867 -18.7479 -79.2321 -0 -0 53.6883 -3.67369e-06 -6.73873 2.97826 -0.351692 4.69287e-06 -40.4037 0.888456 4.53683 -16.1353 -0 -0 58.3012 2.64013e-06 2.88936 -9.61924 -0.4832 -4.73298e-06 -83.1985 
73.518 71.665 10.235 40.8092 -83.0422 -16.3793 0 -0 0 3.56485 -16.2405 18.7524 10.6037 -16.3362 -3.99066e-05 59.4196 -38.7828 7.66299 -0 74.4187 -0 -1.07168 4.26018 -0.0398989 -5.61287 18.7745 -5.97762e-06 -28.5402 -17.3954 -6.95246 -180 -70.0426 180 -8.29341 3.13175 -0.227098 6.43292 -0.405889 -12.1896 14.1692 -19.1431 -79.4349 -0 -0 56.6311 3.61633e-06 -5.91261 2.53575 -0.262495 2.84247e-06 -35.2109 1.36676 3.45125 -14.5799 -0 -0 57.7749 -3.80334e-06 2.3877 -8.47998 -0.352303 2.93114e-06 -84.7 
71.804 71.34 10.139 39.7269 -83.0928 -15.4909 0 -0 0 4.64801 -16.4961 18.238 10.5711 -16.3253 -5.12896e-05 59.0024 -39.2297 7.32301 -1.3106e-06 75.0276 -1.00615e-06 -0.381697 4.36526 -0.0145 -5.80818 19.0482 3.02873e-05 -28.4448 -16.4875 -6.8435 -180 -69.6052 180 -8.5319 3.10214 -0.231498 6.13005 -0.639986 -12.6531 14.0349 -19.4303 -79.5117 -0 -0 59.4144 -1.10369e-06 -5.20925 1.6186 -0.147496 9.91125e-07 -29.3295 1.88541 2.39258 -13.0781 -0 -0 57.2345 2.02694e-06 1.89518 -7.20807 -0.237902 -8.81094e-07 -86.1984 
70.103 71.035 10.024 38.2975 -83.2386 -14.2227 0 -0 0 5.79976 -16.6945 17.7138 10.6089 -16.2782 6.50504e-05 58.5416 -39.4223 6.95552 -1.47552e-06 75.495 -1.90584e-06 0.304507 4.44517 0.0118003 -6.02699 19.2736 -7.87052e-06 -28.451 -15.4542 -6.66345 -180 -69.1722 180 -8.70935 3.0748 -0.234197 5.83655 -0.852046 -13.0937 13.985 -19.6086 -79.4649 -0 -0 61.9906 -3.71864e-07 -4.67323 0.285796 -0.0233993 2.23289e-07 -23.2784 2.41812 1.35761 -11.6441 -0 -0 56.6862 1.82637e-06 1.42484 -5.77697 -0.143499 -6.23263e-08 -87.6198 
68.419 70.753 9.8955 36.6193 -83.4448 -12.656 0 -0 0 6.98303 -16.8461 17.1687 10.7249 -16.2133 2.34539e-05 58.0331 -39.3547 6.5704 -0 75.819 -0 0.959995 4.48289 0.0375997 -6.248 19.4315 -3.80213e-05 -28.5634 -14.2709 -6.40185 -180 -68.7244 180 -8.82596 3.04974 -0.235409 5.57098 -1.05169 -13.4953 14.0114 -19.7046 -79.3178 -0 -0 64.3491 -6.1133e-07 -4.3212 -1.39929 0.105699 5.84554e-07 -17.3511 2.92762 0.313703 -10.3099 -0 -0 56.1586 -3.05737e-07 0.966907 -4.15245 -0.0699991 -1.18304e-07 -88.8168 
66.758 70.497 9.7561 34.7749 -83.7124 -10.8778 0 -0 0 8.16303 -16.9475 16.6133 10.907 -16.1344 -1.63381e-05 57.485 -39.0117 6.19792 -9.81745e-07 75.9774 -7.66696e-07 1.52428 4.48232 0.059699 -6.46023 19.5267 -1.72711e-05 -28.7876 -12.9374 -6.05486 -180 -68.2658 180 -8.88202 3.02014 -0.234608 5.34888 -1.23296 -13.8554 14.0869 -19.7038 -79.0556 -0 -0 66.4615 -5.65054e-07 -4.16669 -3.31905 0.241708 1.31375e-06 -12.0614 3.38976 -0.713105 -9.08372 -0 -0 55.6665 2.61476e-07 0.545702 -2.36053 -0.0225004 -6.94012e-07 -89.6326 
